<?xml version="1.0" standalone="no"?>
<!DOCTYPE svg PUBLIC "-//W3C//DTD SVG 20010904//EN"
 "http://www.w3.org/TR/2001/REC-SVG-20010904/DTD/svg10.dtd">
<svg version="1.0" xmlns="http://www.w3.org/2000/svg"
 width="200.000000pt" height="200.000000pt" viewBox="0 0 200.000000 200.000000"
 preserveAspectRatio="xMidYMid meet">

<g transform="translate(0.000000,200.000000) scale(0.100000,-0.100000)"
fill="#000000" stroke="none">
<path d="M0 1000 l0 -1000 1000 0 1000 0 0 1000 0 1000 -1000 0 -1000 0 0
-1000z m1421 431 l29 -29 0 -402 0 -402 -29 -29 -29 -29 -392 0 -392 0 -29 29
-29 30 2 183 3 183 140 0 140 0 3 -115 c2 -88 6 -118 19 -132 20 -22 51 -23
75 -1 16 14 18 33 18 165 l0 148 70 0 c47 0 79 5 95 16 46 30 92 -31 50 -66
-16 -13 -65 -6 -65 10 0 6 -27 10 -60 10 l-60 0 0 -140 c0 -136 -1 -142 -25
-165 -32 -33 -84 -33 -122 -1 -26 23 -28 28 -31 130 l-4 106 -109 0 -109 0 0
-158 c0 -121 3 -163 14 -178 14 -18 30 -19 406 -19 379 0 392 1 406 20 12 17
14 82 12 413 -3 376 -4 394 -22 408 -16 11 -87 14 -398 14 -365 0 -379 -1
-398 -20 -18 -18 -20 -33 -20 -165 l0 -145 109 0 109 0 4 75 c3 66 7 78 31
102 l27 28 174 0 c170 0 175 -1 200 -24 29 -27 36 -54 23 -94 -14 -43 -49 -55
-182 -58 -115 -4 -120 -3 -123 17 -3 20 1 20 110 17 129 -5 161 5 166 50 6 54
-4 57 -193 57 -130 0 -175 -3 -183 -13 -6 -7 -12 -53 -14 -103 l-3 -89 -142
-3 -143 -3 0 165 c0 173 6 206 44 224 13 7 164 11 409 11 l389 1 29 -29z"/>
</g>
</svg>
